<svg id="Laag_1" data-name="Laag 1" xmlns="http://www.w3.org/2000/svg" xmlns:xlink="http://www.w3.org/1999/xlink" viewBox="0 0 757.28 97.14"><defs><style>.cls-1{fill:none;}.cls-2{clip-path:url(#clip-path);}.cls-3{fill:#3b3561;}</style><clipPath id="clip-path" transform="translate(-4.59 -2.49)"><rect class="cls-1" x="-28.46" y="-8.65" width="823.38" height="109.86"/></clipPath></defs><g class="cls-2"><path class="cls-3" d="M156.68,14.12c68.71-6.4,152.61,1.94,222-3.88,83.23-7.75,173.4-7.75,256.64-7.75,0,3.87-6.94,9.69,0,11.63C663,19.94,663,27.7,663,35.46c0,3.88-20.81,0-13.88,3.88-20.8,0-55.5,1.94-34.67,5.82,6.93,3.88,34.67,0,41.6,5.81s-6.93,11.64,0,17.46h27.76c6.93,3.89-6.94,11.64,0,11.64C704.65,84,732.4,82,760.12,82c0,3.88,7,7.76-6.91,9.7C510.43,95.59,260.73,103.35,18,97.52-9.78,95.59,11,87.83,31.83,82,24.9,84,24.9,78.13,18,80.07c0-5.82,13.87-15.51,41.62-17.46H38.77c-6.94-1.93,0-5.81,0-9.69,6.94,0,13.87,0,13.87-2V43.22H24.9c6.93,0,13.87,0,13.87-1.94V33.52c13.87-1.94,34.68,1.94,48.56,0V27.7c-13.88-1.94-34.69,0-48.56,0,6.94-1.94,6.94-3.88,6.94-7.76C66.52,18,87.33,23.82,108.13,18H87.33c13.87-9.7,48.54-1.94,69.35-3.88" transform="translate(-4.59 -2.49)"/></g></svg>